<?xml version="1.0" encoding="UTF-8" standalone="no"?>
<!-- Created with Inkscape (http://www.inkscape.org/) -->

<svg
   width="64"
   height="64"
   viewBox="0 0 16.933333 16.933333"
   version="1.1"
   id="svg341"
   inkscape:version="1.2.2 (b0a8486541, 2022-12-01)"
   sodipodi:docname="favicon.svg"
   xmlns:inkscape="http://www.inkscape.org/namespaces/inkscape"
   xmlns:sodipodi="http://sodipodi.sourceforge.net/DTD/sodipodi-0.dtd"
   xmlns="http://www.w3.org/2000/svg"
   xmlns:svg="http://www.w3.org/2000/svg">
  <sodipodi:namedview
     id="namedview343"
     pagecolor="#ffffff"
     bordercolor="#cccccc"
     borderopacity="1"
     inkscape:showpageshadow="0"
     inkscape:pageopacity="1"
     inkscape:pagecheckerboard="0"
     inkscape:deskcolor="#d1d1d1"
     inkscape:document-units="mm"
     showgrid="false"
     inkscape:zoom="0.91401515"
     inkscape:cx="226.47327"
     inkscape:cy="561.80688"
     inkscape:window-width="3440"
     inkscape:window-height="1368"
     inkscape:window-x="1920"
     inkscape:window-y="0"
     inkscape:window-maximized="1"
     inkscape:current-layer="layer1" />
  <defs
     id="defs338" />
  <g
     inkscape:label="Layer 1"
     inkscape:groupmode="layer"
     id="layer1">
    <g
       id="g486"
       transform="matrix(0.48478755,0,0,0.48478755,-46.263296,-58.752955)">
      <path
         d="m 114.66594,121.1932 c 4.04391,0 7.29105,1.24774 9.74145,3.74323 2.4504,2.48046 3.6756,5.72761 3.6756,9.74145 0,2.73602 -0.37584,5.32171 -1.12749,7.75707 -0.75166,2.43537 -1.84156,4.62268 -3.2697,6.56196 -1.75888,2.39026 -3.84096,4.17919 -6.24625,5.3668 -2.4053,1.17258 -5.17138,1.75888 -8.29828,1.75888 -4.02886,0 -7.26849,-1.24022 -9.718886,-3.7207 -2.435361,-2.48046 -3.653041,-5.73513 -3.653041,-9.76398 0,-2.75107 0.36831,-5.34428 1.104931,-7.77964 0.751656,-2.43535 1.849072,-4.63019 3.292246,-6.58449 1.72881,-2.37523 3.79586,-4.14913 6.20115,-5.32171 2.4053,-1.17258 5.17138,-1.75887 8.29827,-1.75887 z"
         style="font-style:oblique;font-weight:bold;font-stretch:semi-condensed;font-size:50.3436px;line-height:1.25;font-family:'DejaVu Sans';-inkscape-font-specification:'DejaVu Sans, Bold Oblique Semi-Condensed';fill:#333333;stroke-width:3.84846"
         id="path1315"
         sodipodi:nodetypes="scssccscsccss" />
      <path
         id="path1243"
         style="fill:#ffffff;stroke-width:0.0949771;stroke-linecap:round;paint-order:stroke fill markers;stop-color:#000000"
         d="m 107.97573,126.91693 c -0.0882,0 -0.15933,0.0733 -0.15933,0.16447 v 2.53142 c 0,0.0911 0.0711,0.16448 0.15933,0.16448 h 1.06715 c 0.0882,0 0.15898,-0.0733 0.15898,-0.16448 v -2.53142 c 0,-0.0911 -0.0707,-0.16447 -0.15898,-0.16447 z m 3.0155,0 c -0.0882,0 -0.15933,0.0733 -0.15933,0.16447 v 2.53142 c 0,0.0911 0.0711,0.16448 0.15933,0.16448 h 1.06679 c 0.0882,0 0.15934,-0.0733 0.15934,-0.16448 v -2.53142 c 0,-0.0911 -0.0711,-0.16447 -0.15934,-0.16447 z m 3.01514,0 c -0.0882,0 -0.15933,0.0733 -0.15933,0.16447 v 2.53142 c 0,0.0911 0.0711,0.16448 0.15933,0.16448 h 1.06679 c 0.0882,0 0.15934,-0.0733 0.15934,-0.16448 v -2.53142 c 0,-0.0911 -0.0711,-0.16447 -0.15934,-0.16447 z m 3.01514,0 c -0.0882,0 -0.15897,0.0733 -0.15897,0.16447 v 2.53142 c 0,0.0911 0.0708,0.16448 0.15897,0.16448 h 1.06716 c 0.0882,0 0.15897,-0.0733 0.15897,-0.16448 v -2.53142 c 0,-0.0911 -0.0708,-0.16447 -0.15897,-0.16447 z m -9.82771,4.20627 c -1.00934,0 -1.82211,0.83863 -1.82211,1.88055 v 11.80165 c 0,1.04194 0.81277,1.88095 1.82211,1.88095 h 2.78999 v -5.82956 l -1.20383,-1.148 c -0.16503,0.0608 -0.33934,0.0922 -0.51505,0.0924 -0.83263,8e-5 -1.50767,-0.68079 -1.50775,-1.52078 -1.2e-4,-0.84012 0.67498,-1.52121 1.50775,-1.52114 0.83263,1.3e-4 1.5075,0.68117 1.50739,1.52114 -3e-4,0.24977 -0.0616,0.49563 -0.1784,0.71584 l 1.10959,1.0578 c 0.15518,0.04 0.27784,0.16288 0.32191,0.32079 0.0147,0.0295 0.0204,0.0627 0.0165,0.095 8.5e-4,0.0114 0.001,0.0229 0.001,0.0346 v 6.18189 h 0.92975 v -10.00204 c 0,-0.0593 0.006,-0.11641 0.0173,-0.17113 -0.59694,-0.21765 -0.99483,-0.78915 -0.99521,-1.42948 9e-5,-0.83997 0.67512,-1.52082 1.50775,-1.52076 0.83248,1.3e-4 1.5073,0.68095 1.50739,1.52076 -3.9e-4,0.64033 -0.39827,1.21183 -0.99522,1.42948 0.0109,0.0547 0.0176,0.1119 0.0176,0.17113 v 10.00204 h 1.00398 c -0.9906,-2.00448 -0.69519,-9.88677 6.41183,-11.98881 v -1.69372 c 0,-1.04193 -0.8124,-1.88056 -1.82175,-1.88056 z m -6.32558,2.56597 c -0.10176,0.004 -0.18235,0.0918 -0.18235,0.19825 v 1.03329 c 0,0.10983 0.0857,0.19825 0.19207,0.19825 h 2.95723 c 0.1064,0 0.19207,-0.0884 0.19207,-0.19825 v -1.03329 c 0,-0.10985 -0.0857,-0.19825 -0.19207,-0.19825 h -2.95723 c -0.003,0 -0.006,-1.9e-4 -0.01,0 z m 11.63436,0.7032 c -0.37843,6e-5 -0.68518,0.30957 -0.68518,0.69133 0,0.38177 0.30675,0.69127 0.68518,0.69133 0.37843,-6e-5 0.68518,-0.30956 0.68518,-0.69133 -1e-5,-0.38176 -0.30675,-0.69127 -0.68518,-0.69133 z m -11.63436,2.40925 c -0.10176,0.004 -0.18235,0.0919 -0.18235,0.19828 v 1.03366 c 0,0.10981 0.0857,0.19827 0.19207,0.19827 h 2.95723 c 0.1064,0 0.19207,-0.0884 0.19207,-0.19827 v -1.03366 c 0,-0.10984 -0.0857,-0.19828 -0.19207,-0.19828 h -2.95723 c -0.003,0 -0.006,-1.6e-4 -0.01,0 z m 7.39669,0.7875 c -0.37843,8e-5 -0.68518,0.30957 -0.68518,0.69134 -1e-5,0.38177 0.30674,0.69128 0.68518,0.69134 0.37843,-6e-5 0.68518,-0.30957 0.68517,-0.69134 0,-0.38177 -0.30675,-0.69126 -0.68517,-0.69134 z m -7.38697,2.32499 c -0.10641,0 -0.19207,0.0884 -0.19207,0.19828 v 1.03364 c 0,0.10984 0.0857,0.19827 0.19207,0.19827 h 2.95723 c 0.1064,0 0.19207,-0.0884 0.19207,-0.19827 v -1.03364 c 0,-0.10985 -0.0857,-0.19828 -0.19207,-0.19828 z m 0,3.11247 c -0.10641,0 -0.19207,0.0884 -0.19207,0.19827 v 1.03365 c 0,0.10985 0.0857,0.19826 0.19207,0.19826 h 2.95723 c 0.1064,0 0.19207,-0.0884 0.19207,-0.19826 v -1.03365 c 0,-0.10984 -0.0857,-0.19827 -0.19207,-0.19827 z m 7.09779,5.25776 c -0.0882,0 -0.15933,0.0733 -0.15933,0.16449 v 2.5314 c 0,0.0911 0.0711,0.1645 0.15933,0.1645 h 1.06715 c 0.0882,0 0.15898,-0.0733 0.15898,-0.1645 v -2.5314 c 0,-0.0911 -0.0707,-0.16449 -0.15898,-0.16449 z m 3.0155,0 c -0.0882,0 -0.15933,0.0733 -0.15933,0.16449 v 2.5314 c 0,0.0911 0.0711,0.1645 0.15933,0.1645 h 1.06679 c 0.0882,0 0.15934,-0.0733 0.15934,-0.1645 v -2.5314 c 0,-0.0911 -0.0711,-0.16449 -0.15934,-0.16449 z"
         sodipodi:nodetypes="sssssssssssssssssssssssssssssssssssscsssccccsccccccsccscccccscccsccssssssssssscscscssssssssssscscscssssssssssssssssssssssssssssssssssss" />
      <path
         style="fill:#00aa44;stroke-width:0.142704;stroke-linecap:round;paint-order:stroke fill markers;stop-color:#000000"
         d="m 129.6982,131.19953 c -0.99483,1.5759 -1.90158,1.46084 -2.9361,2.04579 -7.74777,2.25221 -13.85068,4.91124 -11.17601,16.00852 0.6635,-5.73144 6.51071,-4.90461 10.41319,-11.61323 -3.32483,8.0148 -7.96331,7.30351 -9.12083,12.43988 -1.64934,2.48409 -2.79673,5.47881 -2.79673,5.47881 0.66141,-0.1615 1.32282,-0.3322 1.98423,-0.60767 0,0 0.0771,-0.68843 1.24439,-3.04936 2.95074,0.40248 7.99765,0.0435 9.89683,-2.57001 3.53353,-4.86274 2.89509,-5.57636 2.49103,-18.13273 z"
         id="path1245"
         sodipodi:nodetypes="ccccccccsc" />
    </g>
  </g>
</svg>
