<?xml version="1.0" encoding="UTF-8" standalone="no"?>
<!-- Created with Inkscape (http://www.inkscape.org/) -->

<svg
   width="500"
   height="200"
   viewBox="0 0 132.29166 52.916668"
   version="1.1"
   id="svg663"
   inkscape:version="1.2.2 (b0a8486541, 2022-12-01)"
   sodipodi:docname="logo-light.svg"
   xmlns:inkscape="http://www.inkscape.org/namespaces/inkscape"
   xmlns:sodipodi="http://sodipodi.sourceforge.net/DTD/sodipodi-0.dtd"
   xmlns="http://www.w3.org/2000/svg"
   xmlns:svg="http://www.w3.org/2000/svg">
  <sodipodi:namedview
     id="namedview665"
     pagecolor="#ffffff"
     bordercolor="#cccccc"
     borderopacity="1"
     inkscape:showpageshadow="0"
     inkscape:pageopacity="1"
     inkscape:pagecheckerboard="0"
     inkscape:deskcolor="#d1d1d1"
     inkscape:document-units="mm"
     showgrid="false"
     showguides="true"
     inkscape:zoom="3.3954871"
     inkscape:cx="279.04686"
     inkscape:cy="115.88912"
     inkscape:window-width="3440"
     inkscape:window-height="1368"
     inkscape:window-x="1920"
     inkscape:window-y="0"
     inkscape:window-maximized="1"
     inkscape:current-layer="layer1">
    <sodipodi:guide
       position="57.287727,-109.63726"
       orientation="0,-1"
       id="guide1367"
       inkscape:locked="false" />
    <sodipodi:guide
       position="46.307579,-150.69347"
       orientation="0,-1"
       id="guide1369"
       inkscape:locked="false" />
  </sodipodi:namedview>
  <defs
     id="defs660" />
  <g
     inkscape:label="Layer 1"
     inkscape:groupmode="layer"
     id="layer1">
    <path
       d="m 20.749514,8.0593531 c 4.04391,0 7.291054,1.2477424 9.741452,3.7432359 2.450397,2.480458 3.675598,5.72761 3.675598,9.741447 0,2.736023 -0.375834,5.321714 -1.127486,7.757073 -0.751661,2.435368 -1.841558,4.622681 -3.269703,6.561956 -1.758878,2.390261 -3.840959,4.179196 -6.246251,5.366804 -2.405293,1.172581 -5.17138,1.75888 -8.298272,1.75888 -4.028865,0 -7.2684952,-1.240225 -9.7188907,-3.7207 -2.4353604,-2.480458 -3.653041,-5.735128 -3.653041,-9.763983 0,-2.751067 0.3683102,-5.344276 1.1049315,-7.779636 0.7516562,-2.435351 1.8490715,-4.63019 3.2922478,-6.584492 1.7288042,-2.375233 3.7958594,-4.149132 6.2011524,-5.3217145 2.405292,-1.1725798 5.17138,-1.7588704 8.298262,-1.7588704 z"
       style="font-style:oblique;font-weight:bold;font-stretch:semi-condensed;font-size:50.3436px;line-height:1.25;font-family:'DejaVu Sans';-inkscape-font-specification:'DejaVu Sans, Bold Oblique Semi-Condensed';fill:#333333;stroke-width:3.84846"
       id="path1315"
       sodipodi:nodetypes="scssccscsccss" />
    <path
       id="path1243"
       style="fill:#ffffff;stroke-width:0.0999493;stroke-linecap:round;paint-order:stroke fill markers;stop-color:#000000"
       d="m 13.406355,12.51471 c -0.09286,0 -0.167677,0.07714 -0.167677,0.17308 v 2.663951 c 0,0.09586 0.07481,0.17309 0.167677,0.17309 h 1.123016 c 0.09286,0 0.167298,-0.07714 0.167298,-0.17309 V 12.68779 c 0,-0.09585 -0.07444,-0.17308 -0.167298,-0.17308 z m 3.173369,0 c -0.09286,0 -0.167679,0.07714 -0.167679,0.17308 v 2.663951 c 0,0.09586 0.07481,0.17309 0.167679,0.17309 h 1.122639 c 0.09286,0 0.167676,-0.07714 0.167676,-0.17309 V 12.68779 c 0,-0.09585 -0.07481,-0.17308 -0.167676,-0.17308 z m 3.172989,0 c -0.09286,0 -0.167677,0.07714 -0.167677,0.17308 v 2.663951 c 0,0.09586 0.07482,0.17309 0.167677,0.17309 h 1.122638 c 0.09286,0 0.167679,-0.07714 0.167679,-0.17309 V 12.68779 c 0,-0.09585 -0.07481,-0.17308 -0.167679,-0.17308 z m 3.17299,0 c -0.09286,0 -0.167299,0.07714 -0.167299,0.17308 v 2.663951 c 0,0.09586 0.07445,0.17309 0.167299,0.17309 h 1.123019 c 0.09286,0 0.167296,-0.07714 0.167296,-0.17309 V 12.68779 c 0,-0.09585 -0.07445,-0.17308 -0.167296,-0.17308 z m -10.342217,4.426484 c -1.062183,0 -1.917495,0.88253 -1.917495,1.979001 v 12.419488 c 0,1.09648 0.855312,1.979414 1.917495,1.979414 h 2.93605 v -6.134743 l -1.26685,-1.208103 c -0.173672,0.06401 -0.357105,0.09697 -0.542016,0.09728 -0.876222,8.1e-5 -1.586601,-0.716434 -1.586686,-1.600393 -1.21e-4,-0.884103 0.710317,-1.600852 1.586686,-1.60078 0.876218,1.43e-4 1.586426,0.71683 1.586305,1.60078 -3.14e-4,0.262848 -0.06479,0.52158 -0.187737,0.753313 l 1.167684,1.113183 c 0.163299,0.04207 0.292378,0.1714 0.338758,0.337576 0.0155,0.03101 0.02147,0.06599 0.01742,0.100015 8.99e-4,0.01205 0.0011,0.0241 0.0011,0.03641 v 6.505527 h 0.978429 V 22.793498 c 0,-0.06239 0.0066,-0.122501 0.01817,-0.180093 -0.628193,-0.229036 -1.046912,-0.830457 -1.047317,-1.504314 9.3e-5,-0.883941 0.710468,-1.600438 1.586682,-1.600376 0.876067,1.44e-4 1.586212,0.716597 1.586307,1.600376 -4.05e-4,0.673857 -0.419125,1.275278 -1.047319,1.504314 0.0115,0.05754 0.01854,0.117763 0.01854,0.180093 v 10.52567 h 1.585702 c -3.229751,-8.777979 1.275964,-14.082931 4.301215,-16.377857 z m -6.6567292,2.700298 c -0.1070875,0.0045 -0.1919,0.09666 -0.1919,0.208629 v 1.087382 c 0,0.115579 0.090148,0.208637 0.2021201,0.208637 h 3.112051 c 0.1119718,0 0.2021195,-0.09304 0.2021195,-0.208637 v -1.087382 c 0,-0.115596 -0.090145,-0.208629 -0.2021195,-0.208629 h -3.112051 c -0.00342,0 -0.00665,-1.97e-4 -0.010218,0 z m 12.2434352,0.740016 c -0.398241,6.4e-5 -0.721045,0.325772 -0.721048,0.72752 -2e-6,0.401757 0.322804,0.727466 0.721048,0.727529 0.398243,-6.3e-5 0.72105,-0.325772 0.721048,-0.727529 -2e-6,-0.401748 -0.322809,-0.727456 -0.721048,-0.72752 z M 5.9267568,22.91689 c -0.1070875,0.0045 -0.1919,0.09669 -0.1919,0.208655 v 1.087777 c 0,0.115561 0.090148,0.208647 0.2021201,0.208647 h 3.112051 c 0.1119718,0 0.2021195,-0.09305 0.2021195,-0.208647 v -1.087777 c 0,-0.115587 -0.090145,-0.208655 -0.2021195,-0.208655 h -3.112051 c -0.00342,0 -0.00665,-1.71e-4 -0.010218,0 z m 7.7839132,0.828723 c -0.39824,8.1e-5 -0.721045,0.32578 -0.721048,0.727528 -8e-6,0.401766 0.322799,0.727475 0.721048,0.727538 0.398247,-6.3e-5 0.721054,-0.325772 0.721046,-0.727538 -3e-6,-0.401748 -0.322808,-0.727447 -0.721046,-0.727528 z m -7.7736931,2.44671 c -0.1119728,0 -0.2021201,0.09305 -0.2021201,0.208655 v 1.087759 c 0,0.115588 0.090148,0.208647 0.2021201,0.208647 h 3.112051 c 0.1119718,0 0.2021195,-0.09305 0.2021195,-0.208647 v -1.087759 c 0,-0.115597 -0.090145,-0.208655 -0.2021195,-0.208655 z m 0,3.275415 c -0.1119728,0 -0.2021201,0.09305 -0.2021201,0.208646 v 1.087768 c 0,0.115597 0.090148,0.208638 0.2021201,0.208638 h 3.112051 c 0.1119718,0 0.2021195,-0.09304 0.2021195,-0.208638 v -1.087768 c 0,-0.115588 -0.090145,-0.208646 -0.2021195,-0.208646 z m 7.4693781,5.533015 c -0.09286,0 -0.167677,0.07714 -0.167677,0.173098 v 2.663925 c 0,0.09586 0.07481,0.173107 0.167677,0.173107 h 1.123016 c 0.09286,0 0.167298,-0.07714 0.167298,-0.173107 v -2.663925 c 0,-0.09586 -0.07444,-0.173098 -0.167298,-0.173098 z m 3.173369,0 c -0.09286,0 -0.167679,0.07714 -0.167679,0.173098 v 2.663925 c 0,0.09586 0.07481,0.173107 0.167679,0.173107 h 1.122639 c 0.09286,0 0.167676,-0.07714 0.167676,-0.173107 v -2.663925 c 0,-0.09586 -0.07481,-0.173098 -0.167676,-0.173098 z"
       sodipodi:nodetypes="sssssssssssssssssssssssssssssssssssscsssccccsccccccsccscccccsccccssssssssssscscscssssssssssscscscssssssssssssssssssssssssssssssssssss" />
    <path
       id="path1245"
       style="fill:#00aa44;stroke-width:0.191001;stroke-linecap:round;paint-order:stroke fill markers;stop-color:#000000"
       d="M 42.046012 9.4407674 C 40.714493 11.550017 39.500661 11.396179 38.11602 12.179102 C 14.104521 19.691018 23.075623 34.807548 24.378357 35.739937 C 24.22408 35.951971 24.041229 36.165279 23.840405 36.378141 C 21.427647 38.63787 15.526482 41.281415 12.187887 42.671297 C 13.170415 42.856288 14.211478 42.949316 15.311727 42.949316 C 15.889442 42.949316 16.454664 42.929392 17.007747 42.889372 C 19.465114 41.582612 23.718973 39.203076 26.437663 36.765198 C 30.386335 37.298383 36.177671 37.197933 38.711849 33.710604 C 43.44128 27.202103 42.586822 26.246758 42.046012 9.4407674 z " />
    <g
       aria-label="boia"
       id="text1356"
       style="font-size:44.559px;line-height:1.25;font-family:Alkatra;-inkscape-font-specification:Alkatra;letter-spacing:-2.87967px;fill:#333333;stroke-width:3.71323">
      <path
         d="m 57.504062,24.273539 q -2.697909,0 -4.416737,2.784937 -1.718829,2.76318 -1.718829,7.201674 0,2.001674 0.957323,3.154812 0.979079,1.131381 2.697908,1.131381 2.654393,0 4.373222,-2.719665 1.718828,-2.741423 1.718828,-7.005858 0,-2.219247 -0.935565,-3.372386 -0.913807,-1.174895 -2.67615,-1.174895 z m -7.353976,15.774059 -0.652719,3.524687 H 42.469751 L 48.365986,9.7178897 h 7.049373 L 53.13084,22.772284 q 1.610042,-2.132218 3.372385,-3.133055 1.762343,-1.022594 3.851046,-1.022594 3.698745,0 5.85272,2.610879 2.153975,2.610878 2.153975,7.114644 0,2.806695 -0.761506,5.461089 -0.739749,2.654393 -2.153975,4.830125 -1.784101,2.741423 -4.025105,4.155649 -2.241005,1.414226 -4.808369,1.414226 -2.241004,0 -3.829289,-1.000837 -1.566527,-1.022594 -2.632636,-3.154812 z"
         style="font-style:oblique;font-weight:bold;font-stretch:semi-condensed;font-family:'DejaVu Sans';-inkscape-font-specification:'DejaVu Sans, Bold Oblique Semi-Condensed'"
         id="path1666" />
      <path
         d="m 82.082135,24.18651 q -2.719665,0 -4.482008,2.741422 -1.762344,2.741423 -1.762344,6.984101 0,2.306276 0.935565,3.524687 0.957323,1.196652 2.784938,1.196652 2.719665,0 4.482008,-2.741422 1.762344,-2.76318 1.762344,-7.027616 0,-2.284519 -0.957323,-3.481172 -0.935565,-1.196652 -2.76318,-1.196652 z m 0.565691,-5.569875 q 4.895397,0 7.702092,2.76318 2.806695,2.76318 2.806695,7.528034 0,2.76318 -0.89205,5.374059 -0.870293,2.589121 -2.567365,4.743096 -1.979916,2.567364 -4.721339,3.872804 -2.719665,1.305439 -6.070293,1.305439 -4.830126,0 -7.615063,-2.76318 -2.784937,-2.76318 -2.784937,-7.528034 0,-2.741423 0.89205,-5.352301 0.89205,-2.632636 2.589121,-4.808369 1.958159,-2.523849 4.656067,-3.829289 2.719666,-1.305439 6.005022,-1.305439 z"
         style="font-style:oblique;font-weight:bold;font-stretch:semi-condensed;font-family:'DejaVu Sans';-inkscape-font-specification:'DejaVu Sans, Bold Oblique Semi-Condensed'"
         id="path1668" />
      <path
         d="m 97.217528,19.204083 h 7.049372 l -4.286192,24.368202 h -7.027616 z m 1.631799,-9.4861933 h 7.049373 l -1.10962,6.3531383 h -7.071134 z"
         style="font-style:oblique;font-weight:bold;font-stretch:semi-condensed;font-family:'DejaVu Sans';-inkscape-font-specification:'DejaVu Sans, Bold Oblique Semi-Condensed'"
         id="path1670" />
      <path
         d="m 115.76882,32.606594 q -2.63263,0 -3.98159,0.913807 -1.3272,0.892051 -1.3272,2.654394 0,1.327196 0.78327,2.088703 0.80502,0.761506 2.19749,0.761506 2.13222,0 3.58996,-1.435983 1.45774,-1.457741 1.9364,-4.090377 l 0.1523,-0.89205 z m 10.94394,-2.937239 -2.45858,13.90293 h -7.00586 l 0.58745,-3.611716 q -1.71883,2.175732 -3.65523,3.220084 -1.91465,1.022594 -4.15565,1.022594 -3.1113,0 -4.93891,-1.7841 -1.82762,-1.805858 -1.82762,-4.851884 0,-4.656067 3.22008,-7.114644 3.24185,-2.480335 9.35565,-2.480335 h 4.13389 l 0.087,-0.609205 q 0.0435,-0.304603 0.0435,-0.435147 0.0218,-0.130544 0.0218,-0.23933 0,-1.435984 -1.21841,-2.153975 -1.21841,-0.739749 -3.63348,-0.739749 -2.17573,0 -4.22092,0.500418 -2.02343,0.500419 -3.91632,1.501256 l 1.04436,-5.93975 q 2.19749,-0.609205 4.50376,-0.913807 2.30628,-0.32636 4.76486,-0.32636 4.87364,0 7.24518,1.87113 2.37155,1.849372 2.37155,5.656904 0,0.739749 -0.087,1.631799 -0.087,0.870293 -0.26108,1.892887 z"
         style="font-style:oblique;font-weight:bold;font-stretch:semi-condensed;font-family:'DejaVu Sans';-inkscape-font-specification:'DejaVu Sans, Bold Oblique Semi-Condensed'"
         id="path1672" />
    </g>
    <path
       id="path853"
       style="fill:#e5ffd5;stroke-width:0.191001;stroke-linecap:round;paint-order:stroke fill markers;stop-color:#000000"
       d="m 39.129392,14.952493 c -5.409083,10.039796 -13.830611,16.949921 -16.091524,18.694983 0.521759,1.073075 1.052633,1.787988 1.316715,1.99626 7.615785,-4.532958 12.368825,-12.287658 14.774809,-20.691243 z" />
  </g>
</svg>
