<?xml version="1.0" encoding="UTF-8" standalone="no"?>
<!-- Created with Inkscape (http://www.inkscape.org/) -->

<svg
   width="500"
   height="200"
   viewBox="0 0 132.29166 52.916668"
   version="1.1"
   id="svg663"
   inkscape:version="1.2.2 (b0a8486541, 2022-12-01)"
   sodipodi:docname="logo.svg"
   xmlns:inkscape="http://www.inkscape.org/namespaces/inkscape"
   xmlns:sodipodi="http://sodipodi.sourceforge.net/DTD/sodipodi-0.dtd"
   xmlns="http://www.w3.org/2000/svg"
   xmlns:svg="http://www.w3.org/2000/svg">
  <sodipodi:namedview
     id="namedview665"
     pagecolor="#ffffff"
     bordercolor="#cccccc"
     borderopacity="1"
     inkscape:showpageshadow="0"
     inkscape:pageopacity="1"
     inkscape:pagecheckerboard="0"
     inkscape:deskcolor="#d1d1d1"
     inkscape:document-units="mm"
     showgrid="false"
     showguides="true"
     inkscape:zoom="0.51698672"
     inkscape:cx="1232.14"
     inkscape:cy="732.12713"
     inkscape:window-width="3440"
     inkscape:window-height="1368"
     inkscape:window-x="1920"
     inkscape:window-y="0"
     inkscape:window-maximized="1"
     inkscape:current-layer="layer1">
    <sodipodi:guide
       position="57.287727,-109.63726"
       orientation="0,-1"
       id="guide1367"
       inkscape:locked="false" />
    <sodipodi:guide
       position="46.307579,-150.69347"
       orientation="0,-1"
       id="guide1369"
       inkscape:locked="false" />
  </sodipodi:namedview>
  <defs
     id="defs660" />
  <g
     inkscape:label="Layer 1"
     inkscape:groupmode="layer"
     id="layer1">
    <g
       id="g1683">
      <path
         d="m 23.758108,8.8203776 c 4.04391,0 7.291054,1.2477424 9.741452,3.7432354 2.450397,2.480458 3.675598,5.72761 3.675598,9.741447 0,2.736023 -0.375834,5.321714 -1.127486,7.757073 -0.751661,2.435368 -1.841558,4.622681 -3.269703,6.561956 -1.758878,2.390261 -3.840959,4.179196 -6.246251,5.366804 -2.405293,1.172581 -5.17138,1.75888 -8.298272,1.75888 -4.028865,0 -7.268496,-1.240225 -9.7188915,-3.7207 -2.4353604,-2.480458 -3.653041,-5.735128 -3.653041,-9.763983 0,-2.751067 0.3683102,-5.344276 1.1049315,-7.779636 0.7516562,-2.435351 1.8490715,-4.63019 3.2922478,-6.584492 1.7288042,-2.375233 3.7958602,-4.149132 6.2011532,-5.321714 2.405292,-1.1725798 5.17138,-1.7588704 8.298262,-1.7588704 z"
         style="font-style:oblique;font-weight:bold;font-stretch:semi-condensed;font-size:50.3436px;line-height:1.25;font-family:'DejaVu Sans';-inkscape-font-specification:'DejaVu Sans, Bold Oblique Semi-Condensed';fill:#333333;stroke-width:3.84846"
         id="path1315"
         sodipodi:nodetypes="scssccscsccss" />
      <path
         id="path1243"
         style="fill:#ffffff;stroke-width:0.0949771;stroke-linecap:round;paint-order:stroke fill markers;stop-color:#000000"
         d="m 17.067903,14.544108 c -0.08824,0 -0.159336,0.0733 -0.159336,0.16447 v 2.531426 c 0,0.09109 0.07109,0.164479 0.159336,0.164479 h 1.067149 c 0.08824,0 0.158975,-0.0733 0.158975,-0.164479 v -2.531426 c 0,-0.09108 -0.07074,-0.16447 -0.158975,-0.16447 z m 3.015501,0 c -0.08824,0 -0.159337,0.0733 -0.159337,0.16447 v 2.531426 c 0,0.09109 0.07109,0.164479 0.159337,0.164479 h 1.066791 c 0.08824,0 0.159334,-0.0733 0.159334,-0.164479 v -2.531426 c 0,-0.09108 -0.07109,-0.16447 -0.159334,-0.16447 z m 3.015141,0 c -0.08824,0 -0.159336,0.0733 -0.159336,0.16447 v 2.531426 c 0,0.09109 0.0711,0.164479 0.159336,0.164479 h 1.066789 c 0.08824,0 0.159337,-0.0733 0.159337,-0.164479 v -2.531426 c 0,-0.09108 -0.07109,-0.16447 -0.159337,-0.16447 z m 3.015141,0 c -0.08824,0 -0.158976,0.0733 -0.158976,0.16447 v 2.531426 c 0,0.09109 0.07075,0.164479 0.158976,0.164479 h 1.067151 c 0.08824,0 0.158974,-0.0733 0.158974,-0.164479 v -2.531426 c 0,-0.09108 -0.07075,-0.16447 -0.158974,-0.16447 z m -9.827716,4.206277 c -1.009342,0 -1.822104,0.838626 -1.822104,1.88055 v 11.801648 c 0,1.041933 0.812762,1.880943 1.822104,1.880943 h 2.789988 v -5.829554 l -1.203827,-1.148003 c -0.165032,0.06083 -0.33934,0.09215 -0.515052,0.09244 -0.832632,7.7e-5 -1.507671,-0.680793 -1.507752,-1.520777 -1.15e-4,-0.840121 0.67498,-1.521214 1.507752,-1.521145 0.832628,1.36e-4 1.507505,0.681169 1.50739,1.521145 -2.98e-4,0.249772 -0.06157,0.495632 -0.178397,0.715837 l 1.109594,1.057805 c 0.155175,0.03998 0.277833,0.162873 0.321906,0.320782 0.01473,0.02947 0.0204,0.06271 0.01655,0.09504 8.54e-4,0.01145 10e-4,0.0229 10e-4,0.0346 v 6.181893 h 0.929754 V 24.311551 c 0,-0.05929 0.0063,-0.116407 0.01727,-0.171134 -0.596942,-0.217642 -0.99483,-0.789144 -0.995215,-1.429478 8.8e-5,-0.839967 0.675124,-1.52082 1.507748,-1.520761 0.832485,1.37e-4 1.507302,0.680948 1.507392,1.520761 -3.85e-4,0.640334 -0.398274,1.211836 -0.995217,1.429478 0.01093,0.05468 0.01762,0.111905 0.01762,0.171134 v 10.002043 h 1.003975 c -0.9906,-2.004483 -0.695189,-9.886772 6.411828,-11.988817 v -1.693714 c 0,-1.041933 -0.812398,-1.880567 -1.821746,-1.880567 z M 9.9603962,21.31635 C 9.858636,21.32065 9.7780428,21.4082 9.7780428,21.5146 v 1.033287 c 0,0.109829 0.085663,0.198258 0.1920651,0.198258 h 2.9572341 c 0.106402,0 0.192065,-0.08841 0.192065,-0.198258 V 21.5146 c 0,-0.109846 -0.08566,-0.19825 -0.192065,-0.19825 H 9.9701079 c -0.00325,0 -0.00632,-1.88e-4 -0.00971,0 z M 21.59475,22.019552 c -0.378429,6e-5 -0.685174,0.309565 -0.685177,0.691327 -2e-6,0.381771 0.306745,0.691276 0.685177,0.691336 0.378432,-6e-5 0.68518,-0.309565 0.685178,-0.691336 -2e-6,-0.381762 -0.30675,-0.691267 -0.685178,-0.691327 z M 9.9603962,24.428804 c -0.1017602,0.0043 -0.1823534,0.09188 -0.1823534,0.198275 v 1.033663 c 0,0.109812 0.085663,0.198267 0.1920651,0.198267 h 2.9572341 c 0.106402,0 0.192065,-0.08842 0.192065,-0.198267 v -1.033663 c 0,-0.109837 -0.08566,-0.198275 -0.192065,-0.198275 H 9.9701079 c -0.00325,0 -0.00632,-1.62e-4 -0.00971,0 z M 17.357079,25.2163 c -0.378429,7.7e-5 -0.685175,0.309574 -0.685178,0.691336 -7e-6,0.381779 0.306741,0.691284 0.685178,0.691344 0.378435,-6e-5 0.685183,-0.309565 0.685176,-0.691344 -3e-6,-0.381762 -0.306749,-0.691259 -0.685176,-0.691336 z m -7.3869711,2.324992 c -0.1064025,0 -0.1920651,0.08842 -0.1920651,0.198275 v 1.033646 c 0,0.109838 0.085663,0.198267 0.1920651,0.198267 h 2.9572341 c 0.106402,0 0.192065,-0.08842 0.192065,-0.198267 v -1.033646 c 0,-0.109846 -0.08566,-0.198275 -0.192065,-0.198275 z m 0,3.112471 c -0.1064025,0 -0.1920651,0.08842 -0.1920651,0.198267 v 1.033654 c 0,0.109846 0.085663,0.198258 0.1920651,0.198258 h 2.9572341 c 0.106402,0 0.192065,-0.08841 0.192065,-0.198258 V 30.85203 c 0,-0.109838 -0.08566,-0.198267 -0.192065,-0.198267 z m 7.0977951,5.257761 c -0.08824,0 -0.159336,0.0733 -0.159336,0.164487 v 2.531401 c 0,0.09109 0.07109,0.164495 0.159336,0.164495 h 1.067149 c 0.08824,0 0.158975,-0.0733 0.158975,-0.164495 v -2.531401 c 0,-0.09109 -0.07074,-0.164487 -0.158975,-0.164487 z m 3.015501,0 c -0.08824,0 -0.159337,0.0733 -0.159337,0.164487 v 2.531401 c 0,0.09109 0.07109,0.164495 0.159337,0.164495 h 1.066791 c 0.08824,0 0.159334,-0.0733 0.159334,-0.164495 v -2.531401 c 0,-0.09109 -0.07109,-0.164487 -0.159334,-0.164487 z"
         sodipodi:nodetypes="sssssssssssssssssssssssssssssssssssscsssccccsccccccsccscccccscccsccssssssssssscscscssssssssssscscscssssssssssssssssssssssssssssssssssss" />
      <path
         style="fill:#00aa44;stroke-width:0.142704;stroke-linecap:round;paint-order:stroke fill markers;stop-color:#000000"
         d="m 38.79037,18.826708 c -0.994827,1.575898 -1.901583,1.46084 -2.9361,2.04579 -7.747771,2.252214 -13.850676,4.911247 -11.176005,16.008522 0.663495,-5.731437 6.510704,-4.904609 10.41319,-11.613231 -3.324829,8.014799 -7.963315,7.303516 -9.120834,12.43988 -1.649339,2.484089 -2.79673,5.478811 -2.79673,5.478811 0.661412,-0.161497 1.322823,-0.332195 1.984235,-0.607673 0,0 0.0771,-0.688423 1.244385,-3.049355 2.950736,0.402478 7.997651,0.04348 9.896832,-2.570015 3.533532,-4.86274 2.895086,-5.576356 2.491027,-18.132729 z"
         id="path1245"
         sodipodi:nodetypes="ccccccccsc" />
      <g
         aria-label="boia"
         id="text1356"
         style="font-size:44.559px;line-height:1.25;font-family:Alkatra;-inkscape-font-specification:Alkatra;letter-spacing:-2.87967px;fill:#333333;stroke-width:3.71323">
        <path
           d="m 57.504062,24.273539 q -2.697909,0 -4.416737,2.784937 -1.718829,2.76318 -1.718829,7.201674 0,2.001674 0.957323,3.154812 0.979079,1.131381 2.697908,1.131381 2.654393,0 4.373222,-2.719665 1.718828,-2.741423 1.718828,-7.005858 0,-2.219247 -0.935565,-3.372386 -0.913807,-1.174895 -2.67615,-1.174895 z m -7.353976,15.774059 -0.652719,3.524687 H 42.469751 L 48.365986,9.7178897 h 7.049373 L 53.13084,22.772284 q 1.610042,-2.132218 3.372385,-3.133055 1.762343,-1.022594 3.851046,-1.022594 3.698745,0 5.85272,2.610879 2.153975,2.610878 2.153975,7.114644 0,2.806695 -0.761506,5.461089 -0.739749,2.654393 -2.153975,4.830125 -1.784101,2.741423 -4.025105,4.155649 -2.241005,1.414226 -4.808369,1.414226 -2.241004,0 -3.829289,-1.000837 -1.566527,-1.022594 -2.632636,-3.154812 z"
           style="font-style:oblique;font-weight:bold;font-stretch:semi-condensed;font-family:'DejaVu Sans';-inkscape-font-specification:'DejaVu Sans, Bold Oblique Semi-Condensed'"
           id="path1666" />
        <path
           d="m 82.082135,24.18651 q -2.719665,0 -4.482008,2.741422 -1.762344,2.741423 -1.762344,6.984101 0,2.306276 0.935565,3.524687 0.957323,1.196652 2.784938,1.196652 2.719665,0 4.482008,-2.741422 1.762344,-2.76318 1.762344,-7.027616 0,-2.284519 -0.957323,-3.481172 -0.935565,-1.196652 -2.76318,-1.196652 z m 0.565691,-5.569875 q 4.895397,0 7.702092,2.76318 2.806695,2.76318 2.806695,7.528034 0,2.76318 -0.89205,5.374059 -0.870293,2.589121 -2.567365,4.743096 -1.979916,2.567364 -4.721339,3.872804 -2.719665,1.305439 -6.070293,1.305439 -4.830126,0 -7.615063,-2.76318 -2.784937,-2.76318 -2.784937,-7.528034 0,-2.741423 0.89205,-5.352301 0.89205,-2.632636 2.589121,-4.808369 1.958159,-2.523849 4.656067,-3.829289 2.719666,-1.305439 6.005022,-1.305439 z"
           style="font-style:oblique;font-weight:bold;font-stretch:semi-condensed;font-family:'DejaVu Sans';-inkscape-font-specification:'DejaVu Sans, Bold Oblique Semi-Condensed'"
           id="path1668" />
        <path
           d="m 97.217528,19.204083 h 7.049372 l -4.286192,24.368202 h -7.027616 z m 1.631799,-9.4861933 h 7.049373 l -1.10962,6.3531383 h -7.071134 z"
           style="font-style:oblique;font-weight:bold;font-stretch:semi-condensed;font-family:'DejaVu Sans';-inkscape-font-specification:'DejaVu Sans, Bold Oblique Semi-Condensed'"
           id="path1670" />
        <path
           d="m 115.76882,32.606594 q -2.63263,0 -3.98159,0.913807 -1.3272,0.892051 -1.3272,2.654394 0,1.327196 0.78327,2.088703 0.80502,0.761506 2.19749,0.761506 2.13222,0 3.58996,-1.435983 1.45774,-1.457741 1.9364,-4.090377 l 0.1523,-0.89205 z m 10.94394,-2.937239 -2.45858,13.90293 h -7.00586 l 0.58745,-3.611716 q -1.71883,2.175732 -3.65523,3.220084 -1.91465,1.022594 -4.15565,1.022594 -3.1113,0 -4.93891,-1.7841 -1.82762,-1.805858 -1.82762,-4.851884 0,-4.656067 3.22008,-7.114644 3.24185,-2.480335 9.35565,-2.480335 h 4.13389 l 0.087,-0.609205 q 0.0435,-0.304603 0.0435,-0.435147 0.0218,-0.130544 0.0218,-0.23933 0,-1.435984 -1.21841,-2.153975 -1.21841,-0.739749 -3.63348,-0.739749 -2.17573,0 -4.22092,0.500418 -2.02343,0.500419 -3.91632,1.501256 l 1.04436,-5.93975 q 2.19749,-0.609205 4.50376,-0.913807 2.30628,-0.32636 4.76486,-0.32636 4.87364,0 7.24518,1.87113 2.37155,1.849372 2.37155,5.656904 0,0.739749 -0.087,1.631799 -0.087,0.870293 -0.26108,1.892887 z"
           style="font-style:oblique;font-weight:bold;font-stretch:semi-condensed;font-family:'DejaVu Sans';-inkscape-font-specification:'DejaVu Sans, Bold Oblique Semi-Condensed'"
           id="path1672" />
      </g>
    </g>
  </g>
</svg>
